<svg xmlns="http://www.w3.org/2000/svg" data-name="Layer 1" viewBox="0 0 1197.52 442.24" class="svg-rocket-lab-logo"><path d="M509.31 138.72l-.38-.35c-21.75-20.65-51.86-31.3-82.51-29.18L0 138.72l425.92 29.94c31.09 2.19 61.61-8.76 83.44-29.94" fill="#e12726"></path><path fill="#929497" d="M970.98 442.25a.53.53 0 00.47-.28l29-51.8a12.08 12.08 0 0110.68-6.14 12.07 12.07 0 0110.68 6.19l29 51.79a.45.45 0 00.4.24h14.82a.47.47 0 00.41-.69l-32.41-57.81a25.93 25.93 0 00-22.92-13.26h-.05a25.93 25.93 0 00-22.93 13.2l-32.21 57.75a.55.55 0 00.47.81z"></path><path fill="#fff" d="M216.7 370.49a20.45 20.45 0 0120.52 20.52v30.71a20.45 20.45 0 01-20.52 20.53h-61.5a20.5 20.5 0 01-20.51-20.53v-30.71a20.5 20.5 0 0120.51-20.52zm6.22 18.44a6 6 0 00-1.79-4.34 5.91 5.91 0 00-4.38-1.83h-61.5a6.25 6.25 0 00-6.16 6.17v34.87a6.25 6.25 0 006.16 6.18h61.5a5.91 5.91 0 004.38-1.83 6 6 0 001.79-4.35zm153.2 41.05a.62.62 0 01.46.18.56.56 0 01.19.4v11a.65.65 0 01-.19.47.62.62 0 01-.46.18h-81.35a20.45 20.45 0 01-20.51-20.52v-30.7a20.47 20.47 0 0120.51-20.52h81.35a.66.66 0 01.46.18.65.65 0 01.19.47v11.05a.56.56 0 01-.19.39.62.62 0 01-.46.18h-81.35a5.87 5.87 0 00-4.37 1.83 6 6 0 00-1.8 4.34v34.87a6 6 0 001.8 4.33 5.84 5.84 0 004.37 1.83zm181.6-29.74h85.25a.62.62 0 01.46.18.64.64 0 01.18.47v11a.62.62 0 01-.64.64h-85.25v11.25a6 6 0 001.78 4.34 5.91 5.91 0 004.38 1.83h81.29a.62.62 0 01.46.18.54.54 0 01.18.39v11a.64.64 0 01-.18.47.62.62 0 01-.46.18h-81.25a20.43 20.43 0 01-20.5-20.5v-30.6a20.42 20.42 0 0120.5-20.49h81.29a.65.65 0 01.46.17.64.64 0 01.18.47v11a.55.55 0 01-.18.4.65.65 0 01-.46.17h-81.29a5.91 5.91 0 00-4.38 1.83 6 6 0 00-1.78 4.34zm126.39-28.86a.63.63 0 01.17-.47.59.59 0 01.4-.18h101a.59.59 0 01.4.18.68.68 0 01.18.47v11a.59.59 0 01-.18.39.58.58 0 01-.4.17h-43.36v58.64a.64.64 0 01-.18.47.55.55 0 01-.4.18h-13.08a.62.62 0 01-.65-.65v-58.62h-43.33a.58.58 0 01-.4-.17.53.53 0 01-.17-.39z"></path><path fill="#929497" d="M927.19 441.68a.54.54 0 01-.18.39.57.57 0 01-.4.18h-81.27a20.42 20.42 0 01-20.49-20.5v-50.52a.64.64 0 01.18-.47.59.59 0 01.39-.18h13.12a.68.68 0 01.46.18.64.64 0 01.18.47v52.6a6 6 0 001.79 4.34 5.93 5.93 0 004.37 1.83h81.27a.6.6 0 01.58.57zm270.32-50.6v1a19.66 19.66 0 01-5.87 14.33 19.69 19.69 0 015.87 14.34v1.07a19.59 19.59 0 01-6 14.44 19.79 19.79 0 01-14.47 6h-81.27a.64.64 0 01-.47-.18.54.54 0 01-.18-.39v-70.46a.62.62 0 01.65-.65h81.27a20.55 20.55 0 0120.49 20.5m-88.07-8.18v17.42h67.58a6.23 6.23 0 006.16-6.16V389a5.82 5.82 0 00-1.83-4.3 6 6 0 00-4.33-1.8zm73.74 40.93v-5.09a5.87 5.87 0 00-1.83-4.37 6 6 0 00-4.33-1.79h-67.58v17.41h67.58a6 6 0 004.33-1.79 5.87 5.87 0 001.83-4.37"></path><path fill="#fff" d="M411.31 276.91h98.49l-49.24-44.11-49.25 44.11zM714.92 138.73H565.65l153.76 138.18h66.71l-104.47-93.83h33.27a56.73 56.73 0 0056.67-56.67V56.67A56.73 56.73 0 00714.92 0H411.26l49.32 44.35h254.34a12.34 12.34 0 0112.32 12.32v69.74a12.33 12.33 0 01-12.32 12.32zM74.57 416.32h6.2a16 16 0 0016-16v-13.74a16 16 0 00-16-16H0v71.72h14.38v-59.51h67.13a1.57 1.57 0 011.57 1.58v17.81a1.57 1.57 0 01-1.57 1.57H39.73l42.7 38.37h20.6zm432.51 25.92h2.23a.39.39 0 00.21-.72l-2.73-1.72-52-33.4 51.67-33.17 2.91-1.84a.46.46 0 00-.25-.84h-22a1.06 1.06 0 00-.69.25l-47.72 28.71-14 .05v-28.35a.66.66 0 00-.65-.66h-12.09a.66.66 0 00-.66.66v70.37a.66.66 0 00.65.66h12.08a.66.66 0 00.65-.66v-28.63h13.65l48.08 29a1.06 1.06 0 00.69.25h20z"></path></svg>